<svg xmlns="http://www.w3.org/2000/svg" width="auto" height="111.691" viewBox="0 0 116.232 111.691">
    <defs>
        <style>
            .cls-1{fill:#fff;opacity:.15}.cls-2{fill:#dde4fb}
        </style>
    </defs>
    <g id="Group_444" data-name="Group 444" transform="translate(-275.885 -1430)">
        <path id="Path_261" d="M33.865 0C15.089 0-8.759 53.092 3.237 69.633S68.424 83 77.376 61.219 52.641 0 33.865 0z" class="cls-1" data-name="Path 261" transform="rotate(-142 434.437 712.65)"/>
        <g id="creative" transform="translate(314.003 1450.292)">
            <g id="Group_186" data-name="Group 186" transform="translate(29.434 13.243)">
                <g id="Group_185" data-name="Group 185">
                    <path id="Path_264" d="M120.562 85.12A17.575 17.575 0 0 0 103 102.682a19.989 19.989 0 0 0 8.3 15.944v12.684a1.245 1.245 0 0 0 .087.423v.1a1.252 1.252 0 0 0 .075.149l4.381 6.522a1.245 1.245 0 0 0 1.033.548h7.244a1.245 1.245 0 0 0 1.033-.548l4.381-6.522a1.256 1.256 0 0 0 .075-.149v-.1a1.245 1.245 0 0 0 .087-.423v-12.684a19.989 19.989 0 0 0 8.3-15.944 17.575 17.575 0 0 0-17.434-17.562zm2.962 51.479H117.6l-2.713-4.033h11.339zm-9.721-6.522v-3.3h13.517l.012 3.3zm14.09-13.156v.037a1.244 1.244 0 0 0-.56 1.046v6.323H113.8v-6.4a1.244 1.244 0 0 0-.56-1.046 17.426 17.426 0 0 1-7.742-14.239 15.073 15.073 0 0 1 30.133 0 17.425 17.425 0 0 1-7.738 14.279z" class="cls-2" data-name="Path 264" transform="translate(-103 -85.12)"/>
                </g>
            </g>
            <g id="Group_188" data-name="Group 188" transform="translate(46.25 18.882)">
                <g id="Group_187" data-name="Group 187">
                    <path id="Path_265" d="M212.325 121.36a1.245 1.245 0 0 0 0 2.489 9.385 9.385 0 0 1 9.372 9.372 1.245 1.245 0 1 0 2.489 0 11.874 11.874 0 0 0-11.861-11.861z" class="cls-2" data-name="Path 265" transform="translate(-211.08 -121.36)"/>
                </g>
            </g>
            <g id="Group_190" data-name="Group 190" transform="translate(15.88 29.499)">
                <g id="Group_189" data-name="Group 189">
                    <path id="Path_266" d="M26.086 189.6h-8.961a1.245 1.245 0 0 0 0 2.489h8.962a1.245 1.245 0 0 0 1.245-1.245 1.245 1.245 0 0 0-1.246-1.244z" class="cls-2" data-name="Path 266" transform="translate(-15.88 -189.6)"/>
                </g>
            </g>
            <g id="Group_192" data-name="Group 192" transform="translate(66.662 29.499)">
                <g id="Group_191" data-name="Group 191">
                    <path id="Path_267" d="M352.486 189.6h-8.962a1.245 1.245 0 1 0 0 2.489h8.962a1.245 1.245 0 0 0 0-2.489z" class="cls-2" data-name="Path 267" transform="translate(-342.28 -189.6)"/>
                </g>
            </g>
            <g id="Group_194" data-name="Group 194" transform="translate(24.531 44.236)">
                <g id="Group_193" data-name="Group 193">
                    <path id="Path_268" d="M80.169 284.758a1.245 1.245 0 0 0-1.891 0v-.025l-6.36 6.385a1.245 1.245 0 1 0 1.755 1.755l6.36-6.36a1.245 1.245 0 0 0 .136-1.755z" class="cls-2" data-name="Path 268" transform="translate(-71.483 -284.323)"/>
                </g>
            </g>
            <g id="Group_196" data-name="Group 196" transform="translate(60.544 8.413)">
                <g id="Group_195" data-name="Group 195">
                    <path id="Path_269" d="M311.3 54.376a1.245 1.245 0 0 0-1.619 0l-6.36 6.36a1.245 1.245 0 0 0 .884 2.128l-.012-.012a1.245 1.245 0 0 0 .884-.361l6.36-6.36a1.245 1.245 0 0 0-.137-1.755z" class="cls-2" data-name="Path 269" transform="translate(-302.953 -54.076)"/>
                </g>
            </g>
            <g id="Group_198" data-name="Group 198" transform="translate(60.477 44.211)">
                <g id="Group_197" data-name="Group 197">
                    <path id="Path_270" d="M311.321 291.234a1.24 1.24 0 0 0-.247-.25l-6.36-6.385a1.245 1.245 0 1 0-1.755 1.755l6.36 6.36a1.245 1.245 0 0 0 2-1.48z" class="cls-2" data-name="Path 270" transform="translate(-302.523 -284.163)"/>
                </g>
            </g>
            <g id="Group_200" data-name="Group 200" transform="translate(24.667 8.413)">
                <g id="Group_199" data-name="Group 199">
                    <path id="Path_271" d="M80.771 60.736l-6.36-6.36a1.245 1.245 0 0 0-1.755 1.755l6.36 6.36a1.245 1.245 0 0 0 1.755-1.755z" class="cls-2" data-name="Path 271" transform="translate(-72.356 -54.076)"/>
                </g>
            </g>
            <g id="Group_202" data-name="Group 202" transform="translate(45.751)">
                <g id="Group_201" data-name="Group 201">
                    <path id="Path_272" d="M209.122 0a1.245 1.245 0 0 0-1.245 1.245v9a1.245 1.245 0 0 0 1.207 1.281h.038a1.245 1.245 0 0 0 1.245-1.245V1.245A1.245 1.245 0 0 0 209.122 0z" class="cls-2" data-name="Path 272" transform="translate(-207.876)"/>
                </g>
            </g>
        </g>
    </g>
</svg>
