<svg xmlns="http://www.w3.org/2000/svg" xmlns:xlink="http://www.w3.org/1999/xlink" width="707.999" height="802.447" viewBox="0 0 707.999 802.447">
    <defs>
        <style>
            .cls-1{fill:url(#linear-gradient)}.cls-2{fill:url(#linear-gradient-2)}.cls-3{fill:url(#linear-gradient-3)}.cls-4,.cls-6,.cls-8{stroke:rgba(0,0,0,0)}.cls-4{fill:url(#linear-gradient-4)}.cls-5{fill:url(#linear-gradient-5)}.cls-6{fill:url(#linear-gradient-6)}.cls-7{fill:url(#linear-gradient-7)}.cls-8{fill:url(#linear-gradient-8)}.cls-9{fill:#d2eaff}.cls-10{opacity:.36}.cls-11{fill:#264fd5}.cls-12{fill:#40a4e1}.cls-13,.cls-18{fill:#9e005d}.cls-14,.cls-18,.cls-31{opacity:.2}.cls-15{fill:#0d47a1}.cls-16{fill:#002a88}.cls-17,.cls-23{fill:#001f5f}.cls-17{opacity:.61}.cls-19,.cls-31{fill:#31384e}.cls-20{fill:#f9ecc8}.cls-21{fill:url(#linear-gradient-9)}.cls-22{opacity:.1}.cls-24{fill:url(#linear-gradient-10)}.cls-25{fill:#fef2d4}.cls-26{fill:url(#linear-gradient-11)}.cls-27{opacity:.98;fill:url(#linear-gradient-12)}.cls-28{fill:#e6dbbe}.cls-29{fill:#e0d4b4}.cls-30{fill:#33291c}.cls-32{fill:#2349c5}.cls-33{fill:#9200ff}.cls-34{fill:url(#linear-gradient-13)}.cls-35{fill:url(#linear-gradient-14)}.cls-36{fill:#f2e4be}.cls-37{fill:#f1e2ba}.cls-38{fill:url(#linear-gradient-15)}.cls-39{fill:#153fc7}.cls-40{fill:url(#linear-gradient-16)}.cls-41{fill:url(#linear-gradient-17)}
        </style>
        <linearGradient id="linear-gradient" x1=".476" x2=".694" y1=".08" y2="1.068" gradientUnits="objectBoundingBox">
            <stop offset="0" stop-color="#0b42f5"/>
            <stop offset="1" stop-color="#3bfaff"/>
        </linearGradient>
        <linearGradient id="linear-gradient-2" x1=".786" x2=".136" y1=".953" y2="-.009" gradientUnits="objectBoundingBox">
            <stop offset="0" stop-color="#34b3ff"/>
            <stop offset="1" stop-color="#0b42f5"/>
        </linearGradient>
        <linearGradient id="linear-gradient-3" x1="1.28" x2="-.147" y1=".854" y2=".5" gradientUnits="objectBoundingBox">
            <stop offset="0" stop-color="#35ada4"/>
            <stop offset="1" stop-color="#9fff31"/>
        </linearGradient>
        <linearGradient id="linear-gradient-4" x1=".043" x2="1.347" y1=".627" y2="1.118" gradientUnits="objectBoundingBox">
            <stop offset="0" stop-color="#9fff31"/>
            <stop offset="1" stop-color="#16b17e"/>
        </linearGradient>
        <linearGradient id="linear-gradient-5" x1="1.06" x2=".183" y1="1.237" y2="-.105" gradientUnits="objectBoundingBox">
            <stop offset="0" stop-color="#14b42f"/>
            <stop offset="1" stop-color="#9fff31"/>
        </linearGradient>
        <linearGradient id="linear-gradient-6" x1=".254" x2="1.09" y2="1.126" gradientUnits="objectBoundingBox">
            <stop offset="0" stop-color="#9fff31"/>
            <stop offset="1" stop-color="#1eab88"/>
        </linearGradient>
        <linearGradient id="linear-gradient-7" x1=".656" x2="-.22" y1=".719" y2=".53" gradientUnits="objectBoundingBox">
            <stop offset="0" stop-color="#ffb41c"/>
            <stop offset="1" stop-color="#f83d6a"/>
        </linearGradient>
        <linearGradient id="linear-gradient-8" x1="-.129" x2=".841" y1=".595" y2=".733" gradientUnits="objectBoundingBox">
            <stop offset="0" stop-color="#f70f47"/>
            <stop offset="1" stop-color="#ff5e00"/>
        </linearGradient>
        <linearGradient id="linear-gradient-9" x1=".968" x2=".147" y1=".775" y2=".195" gradientUnits="objectBoundingBox">
            <stop offset="0" stop-color="#8e11ec"/>
            <stop offset="1" stop-color="#34b3ff"/>
        </linearGradient>
        <linearGradient id="linear-gradient-10" x1=".87" x2=".499" y1="1.388" y2=".238" gradientUnits="objectBoundingBox">
            <stop offset="0" stop-color="#34b3ff"/>
            <stop offset="1" stop-color="#8e11ec"/>
        </linearGradient>
        <linearGradient id="linear-gradient-11" x1="-.115" x2=".876" y1="1.621" y2=".271" xlink:href="#linear-gradient-10"/>
        <linearGradient id="linear-gradient-12" x1=".725" x2=".409" y1=".991" y2="-.739" gradientUnits="objectBoundingBox">
            <stop offset="0" stop-color="#8e0fef"/>
            <stop offset="1" stop-color="#34b3ff"/>
        </linearGradient>
        <linearGradient id="linear-gradient-13" x1=".11" x2=".5" y1="-.089" y2="1" gradientUnits="objectBoundingBox">
            <stop offset="0" stop-color="#ffb41c"/>
            <stop offset="1" stop-color="#ff5e00"/>
        </linearGradient>
        <linearGradient id="linear-gradient-14" x1=".364" x2=".566" y2="1.85" gradientUnits="objectBoundingBox">
            <stop offset="0" stop-color="#9200ff"/>
            <stop offset="1" stop-color="#34b3ff"/>
        </linearGradient>
        <linearGradient id="linear-gradient-15" x1=".5" x2="1" y2=".652" gradientUnits="objectBoundingBox">
            <stop offset="0" stop-color="#ffa517"/>
            <stop offset="1" stop-color="#ff9111"/>
        </linearGradient>
        <linearGradient id="linear-gradient-16" x2="1.462" y1=".211" y2="1.573" gradientUnits="objectBoundingBox">
            <stop offset="0" stop-color="#9200ff"/>
            <stop offset="1" stop-color="#3bfaff"/>
        </linearGradient>
        <linearGradient id="linear-gradient-17" x2="2.234" y1=".318" y2="1" gradientUnits="objectBoundingBox">
            <stop offset="0" stop-color="#9f1fff"/>
            <stop offset="1" stop-color="#3bfaff"/>
        </linearGradient>
    </defs>
    <g id="Client_sky_high_illustration" data-name="Client sky high illustration" transform="translate(-950.671 -2724.745)">
        <path id="Path_282" d="M108.075 13.818c-20.989 22.013-47.96 42-83.059 48.348C7.783 65.282.127 73.5 0 82.927c-.107 8.034 4.669 17.5 21.539 27.39 41.221 24.173 87.277 15.468 111.229 4.945 30.056-13.2 56.317-43.941 49.289-77.858-8.204-39.598-50.457-48.253-73.982-23.586z" class="cls-1" data-name="Path 282" transform="rotate(-148 1102.727 1355.611)"/>
        <path id="Path_465" d="M547.654 318.589c-8.216-49.187-45.048-92.519-92.27-108.554-27.456-9.323-57-9.82-85.622-14.486s-58.361-14.811-75.979-37.839c-18.593-24.3-19.777-57.473-32.16-85.455C242.947 30.05 197.779 2.284 151.672.145S59.935 19.678 28.747 53.7C13.373 70.473.783 91.466.741 114.216c0 0-9.585 43.8 40.181 88.325 20.215 18.083 47.5 25.889 70.968 39.488s45.58 35.01 47.375 62.073c1.917 28.913-19.637 54.229-23.9 82.891-4.065 27.321 9.5 56.457 33.026 70.934 14.921 9.181 32.619 12.518 49.928 15.223 55.41 8.661 112.352 12.553 167.362 1.639s108.291-37.858 142.784-82.076c7-8.971 13.24-18.7 16.868-29.484 4.798-14.266 4.8-29.794 2.321-44.64z" class="cls-2" data-name="Path 465" transform="rotate(153 435.868 1838.015)"/>
        <g id="Group_285" data-name="Group 285" transform="translate(1081.135 2870.124)">
            <path id="Path_385" d="M786.755 215.224a5.607 5.607 0 0 0 2.245-2.282 5.393 5.393 0 0 0 .2-2.914 18.5 18.5 0 0 0-.64-2.838 26.491 26.491 0 0 0-13.66-16.184 33.264 33.264 0 0 0-6.053-2.255 4.671 4.671 0 0 0-3.824.2 3.064 3.064 0 0 0-.685 4.014 8.448 8.448 0 0 0 3.376 2.754c-3.2-1.843-7.509-.331-11.018 1.4a28.089 28.089 0 0 0-8.441 5.766c-2.3 2.508-3.737 5.93-3.018 9.038a1.592 1.592 0 0 0 .427.865c.643.569 1.709.077 2.535-.331a11.039 11.039 0 0 1 10.428.325 4.526 4.526 0 0 0 .264 3.266c.9 1.332 2.977 1.334 4.627.82s3.246-1.414 4.949-1.436c1.689-.021 3.176.823 4.717 1.39a15.777 15.777 0 0 0 13.571-1.598z" class="cls-3" data-name="Path 385" transform="translate(-745.05 -188.441)"/>
            <path id="Union_10" d="M38.267 19.486c-5.523-2.546-12.028-3.575-18.167-4.275h-.034a1.156 1.156 0 0 1-.977-.109c-1.824-.2-3.678-.368-5.546-.471a1.181 1.181 0 0 1-.158.084 33.955 33.955 0 0 0-7.634 4.6c-.98.785-2.257-.518-1.276-1.3a36.608 36.608 0 0 1 5.036-3.393c-.028 0-.057-.007-.086-.012l-.36-.068a42.249 42.249 0 0 0-6.848.633.912.912 0 1 1-.354-1.789q1.029-.186 2.09-.333a29.35 29.35 0 0 1-3.525-1.668C-.62 10.8.458 9.209 1.5 9.787a27.694 27.694 0 0 0 7.384 2.794 70.334 70.334 0 0 1 9.116.133 28.825 28.825 0 0 0-8.56-11.19c-.922-.742.54-2.04 1.446-1.307a30.175 30.175 0 0 1 9.283 12.7 63.041 63.041 0 0 1 19.17 4.972c.948.436.257 1.693-.647 1.693a1.007 1.007 0 0 1-.425-.096z" class="cls-4" data-name="Union 10" transform="translate(13.904 4.426)"/>
        </g>
        <g id="Group_290" data-name="Group 290" transform="translate(1343.027 2724.745)">
            <path id="Path_390" d="M707.2 469.849a5.291 5.291 0 0 1-1.171 2.784 5.089 5.089 0 0 1-2.46 1.231 17.824 17.824 0 0 1-2.7.472 24.961 24.961 0 0 1-19.029-6.026 31.361 31.361 0 0 1-4.156-4.447 4.406 4.406 0 0 1-1.215-3.4 2.889 2.889 0 0 1 3.244-2.051 7.97 7.97 0 0 1 3.619 1.94c-2.764-2.119-3.008-6.411-2.77-10.092a26.467 26.467 0 0 1 1.957-9.432c1.348-2.908 3.8-5.4 6.768-5.9a1.5 1.5 0 0 1 .907.056c.728.353.686 1.46.63 2.325a10.405 10.405 0 0 0 4.063 8.954 4.266 4.266 0 0 1 2.937-.955c1.482.3 2.24 2.107 2.39 3.728s-.053 3.336.546 4.825 1.865 2.464 2.918 3.6a14.869 14.869 0 0 1 3.522 12.388z" class="cls-5" data-name="Path 390" transform="translate(-676.419 -434.891)"/>
            <path id="Union_7" d="M780.142 2387.272a59.415 59.415 0 0 1-11.269-14.873 28.458 28.458 0 0 1-14.41-3.473c-.966-.524-.366-2.265.613-1.734a27.162 27.162 0 0 0 12.834 3.39 66.357 66.357 0 0 1-3.416-7.875 26.063 26.063 0 0 0-5.107-5.414c-.881-.7.117-2.212 1-1.512a27.68 27.68 0 0 1 2.718 2.463q-.257-.974-.467-1.937a.86.86 0 1 1 1.685-.341 39.9 39.9 0 0 0 1.934 6.194q.094.141.186.283c.015.024.03.047.043.072a34.509 34.509 0 0 1 1.128-5.613c.328-1.139 1.923-.5 1.6.637a32.073 32.073 0 0 0-1.237 8.306 1.114 1.114 0 0 1-.015.167 97.991 97.991 0 0 0 2.417 4.653 1.091 1.091 0 0 1 .451.816l.014.025c2.835 5.087 6.088 10.373 10.3 14.253a1.013 1.013 0 0 1-.517 1.723.715.715 0 0 1-.485-.21z" class="cls-6" data-name="Union 7" transform="translate(-749.066 -2340.657)"/>
        </g>
        <g id="Group_280" data-name="Group 280" transform="rotate(-37 5068.33 -882.995)">
            <path id="Path_380" d="M1009.9 270.12a4.267 4.267 0 0 1-1.268-2.077 4.1 4.1 0 0 1 .355-2.188 14.264 14.264 0 0 1 .964-1.988 20.112 20.112 0 0 1 12.9-9.6 25.237 25.237 0 0 1 4.864-.619 3.548 3.548 0 0 1 2.792.806 2.325 2.325 0 0 1-.187 3.085 6.413 6.413 0 0 1-2.973 1.451c2.687-.807 5.608 1.055 7.9 2.945a21.267 21.267 0 0 1 5.241 5.723c1.266 2.251 1.736 5.029.666 7.2a1.2 1.2 0 0 1-.464.566c-.574.309-1.276-.239-1.817-.683a8.374 8.374 0 0 0-7.763-1.564 3.438 3.438 0 0 1-.76 2.369c-.892.828-2.432.471-3.562-.2a13.787 13.787 0 0 0-3.41-1.916 10.134 10.134 0 0 0-3.727.211 11.982 11.982 0 0 1-9.751-3.521z" class="cls-7" data-name="Path 380" transform="translate(-1001.679 -253.648)"/>
            <path id="Union_9" d="M374 2595.087a25.894 25.894 0 0 0-4.846-4.721.892.892 0 0 1-.1-.088 77.91 77.91 0 0 0-4.181-.612.879.879 0 0 1-.74-.089h-.025c-4.659-.546-9.645-.911-14.168.014-.885.181-1.41-1.183-.515-1.366a47.819 47.819 0 0 1 15.027-.357 22.911 22.911 0 0 1 9.059-7.778c.8-.385 1.652.827.845 1.216a21.884 21.884 0 0 0-8.263 6.789 53.387 53.387 0 0 1 6.761 1.479 20.973 20.973 0 0 0 5.937-.787c.871-.247 1.391 1.118.517 1.366a22.239 22.239 0 0 1-2.889.616q.758.292 1.485.607a.693.693 0 1 1-.571 1.263 32.056 32.056 0 0 0-4.955-1.654l-.276-.012-.067-.006a27.812 27.812 0 0 1 3.136 3.38.644.644 0 0 1-.558 1.055.766.766 0 0 1-.613-.315z" class="cls-8" data-name="Union 9" transform="translate(-348.961 -2577.052)"/>
        </g>
        <path id="Path_311" d="M2170.953 726.107c0 10.384-83.1 18.8-185.6 18.8s-185.577-8.42-185.577-18.8 83.087-18.8 185.577-18.8 185.6 8.414 185.6 18.8z" class="cls-9" data-name="Path 311" transform="translate(-741.091 2739.023)"/>
        <g id="Group_226" data-name="Group 226" transform="rotate(22 -996.917 5216.197)">
            <g id="Group_225" class="cls-10" data-name="Group 225" transform="rotate(-34 13258.258 -1572.322)">
                <path id="Path_244" d="M9.55.026C3.172-.4 1.838 4.468 3.2 7.634c1.933 4.486 4.608 4.408-.663 9.952-3.89 4.09-3.489 10.532 2.454 12.381 8.307 2.584 1.37 7.8.572 11.914-1.646 8.5 4.525 9 14.693 10.585 10.439 1.626 17.088-1.989 22.26-9.626 3.82-5.638 5.525-11.374 1.49-15.221-5.8-5.524-11.643.584-10.493-6.43.689-4.2-.868-11.336-9.68-9.872S18.737.639 9.55.026z" class="cls-11" data-name="Path 244" transform="rotate(8 37393.224 -469.798)"/>
                <path id="Path_245" d="M23.865 50.271l-.408-2.224-.815-4.447c-.325-1.472-.721-2.927-1.08-4.392l-.55-2.193c-.2-.727-.449-1.439-.671-2.159-.465-1.434-.9-2.879-1.391-4.3a96.352 96.352 0 0 0-7.757-16.316A68 68 0 0 0 .109 0L0 .125q.754.837 1.447 1.73c.484.571.94 1.168 1.393 1.764s.9 1.2 1.323 1.814.876 1.209 1.265 1.85c.818 1.249 1.666 2.471 2.4 3.768.378.641.773 1.27 1.162 1.9l1.078 1.953 1.072 1.951.995 1.992 1 1.99c.334.662.6 1.357.9 2.034.289.683.6 1.354.9 2.031l.457 1.013c.144.341.267.691.4 1.037l1.598 4.158c.5 1.4.937 2.815 1.409 4.222.225.706.481 1.4.682 2.119s.371 1.437.574 2.151c.387 1.434.816 2.859 1.171 4.3.3 1.457.619 2.91.948 4.364l.49 2.184" class="cls-12" data-name="Path 245" transform="rotate(8 37326.97 -398.982)"/>
                <path id="Path_246" d="M12.249 1.741A11.039 11.039 0 0 0 9.3.548C8.8.4 8.282.319 7.769.218 7.254.136 6.733.09 6.215.033a16.17 16.17 0 0 0-3.146.1A9.2 9.2 0 0 0 0 1.05l.014.109a31.617 31.617 0 0 1 6.121-.025 59.215 59.215 0 0 1 6.094.716z" class="cls-12" data-name="Path 246" transform="rotate(8 37193.131 -425.053)"/>
                <path id="Path_247" d="M10.037 2.5a8.14 8.14 0 0 0-2.268-1.438A11.663 11.663 0 0 0 6.545.589C6.129.458 5.7.359 5.28.25A12.237 12.237 0 0 0 2.656 0 7 7 0 0 0 0 .538v.111a26.222 26.222 0 0 1 5.052.682A49.353 49.353 0 0 1 10 2.6z" class="cls-12" data-name="Path 247" transform="rotate(8 37270.95 -434.576)"/>
                <path id="Path_248" d="M.178 6.177a8.651 8.651 0 0 0 .639-1.653C.968 4 1.1 3.5 1.209 3.014c.032-.252.111-.48.16-.717l.08-.353a2.911 2.911 0 0 0 .093-.344A7.588 7.588 0 0 1 2.13.089L2.083 0A3.152 3.152 0 0 0 .85 1.186a5.445 5.445 0 0 0-.627 1.6 10.372 10.372 0 0 0-.145 3.4z" class="cls-12" data-name="Path 248" transform="rotate(8 37230.946 -290.473)"/>
                <path id="Path_249" d="M16.239 2.308a14.624 14.624 0 0 0-3.91-1.58c-.667-.2-1.35-.3-2.03-.439C9.616.181 8.927.119 8.238.043a21.638 21.638 0 0 0-4.169.126A12.23 12.23 0 0 0 0 1.391l.019.145A41.868 41.868 0 0 1 8.134 1.5a78.846 78.846 0 0 1 8.077.948z" class="cls-12" data-name="Path 249" transform="rotate(8 37114.505 -418.341)"/>
                <path id="Path_251" d="M.569 4.987a6.348 6.348 0 0 0 .184-1.353c.025-.423.011-.825.013-1.213-.023-.39-.025-.765-.025-1.134A4.842 4.842 0 0 1 .892.057L.842 0a2.37 2.37 0 0 0-.68 1.126A4.327 4.327 0 0 0 0 2.437a9.436 9.436 0 0 0 .5 2.574z" class="cls-12" data-name="Path 251" transform="rotate(8 37296.855 -333.243)"/>
                <path id="Path_250" d="M.243 9.8a15.388 15.388 0 0 0 1.366-4.243A18.894 18.894 0 0 1 3.027 1.4q.255-.521.546-1.024c.1-.179.2-.5-.061-.323a2.681 2.681 0 0 0-.4.423c-.228.254-.467.508-.672.782A18.349 18.349 0 0 0 1.2 3.086 10.871 10.871 0 0 0 .109 9.815z" class="cls-12" data-name="Path 250" transform="rotate(8 37174.019 -245.435)"/>
            </g>
            <g id="Group_224" data-name="Group 224" transform="translate(196.283 7803.512)">
                <path id="Path_244-2" d="M15.1.041C5.016-.632 2.906 7.065 5.064 12.073c3.057 7.094 7.287 6.971-1.049 15.739C-2.138 34.281-1.5 44.469 7.9 47.391c13.138 4.087 2.167 12.33.905 18.842-2.6 13.449 7.156 14.236 23.236 16.74 16.509 2.571 27.024-3.146 35.2-15.224 6.041-8.917 8.738-17.987 2.356-24.071C60.431 34.942 51.183 44.6 53 33.509c1.089-6.639-1.373-17.928-15.308-15.613S29.633 1.011 15.1.041z" class="cls-11" data-name="Path 244" transform="rotate(8 37395.363 -439.216)"/>
                <path id="Path_245-2" d="M37.742 79.5l-.642-3.515-1.29-7.034c-.516-2.327-1.144-4.629-1.71-6.951l-.87-3.469c-.314-1.15-.71-2.276-1.062-3.414-.735-2.268-1.425-4.554-2.2-6.807A152.378 152.378 0 0 0 17.7 22.511 107.548 107.548 0 0 0 .172 0L0 .2q1.192 1.322 2.289 2.733c.766.9 1.487 1.846 2.2 2.789.734.928 1.419 1.894 2.092 2.869s1.385 1.911 2 2.925c1.294 1.975 2.635 3.908 3.8 5.959.6 1.014 1.223 2.009 1.837 3.01l1.705 3.089 1.7 3.086 1.577 3.152 1.575 3.147C21.3 34 21.722 35.1 22.2 36.175c.457 1.08.952 2.142 1.43 3.212l.722 1.6c.228.539.423 1.093.637 1.64L27.5 49.2c.783 2.211 1.482 4.451 2.228 6.677.357 1.116.76 2.221 1.079 3.351.3 1.136.588 2.273.908 3.4.612 2.268 1.29 4.521 1.852 6.806.468 2.3.979 4.6 1.5 6.9l.774 3.454" class="cls-12" data-name="Path 245" transform="rotate(8 37290.579 -327.22)"/>
                <path id="Path_246-2" d="M19.372 2.754A17.458 17.458 0 0 0 14.708.867c-.8-.239-1.61-.362-2.422-.523-.814-.13-1.638-.2-2.457-.292A25.573 25.573 0 0 0 4.853.2 14.555 14.555 0 0 0 0 1.661l.022.172a50 50 0 0 1 9.678-.04 93.647 93.647 0 0 1 9.64 1.132z" class="cls-12" data-name="Path 246" transform="rotate(8 37078.92 -368.451)"/>
                <path id="Path_247-2" d="M15.874 3.952a12.874 12.874 0 0 0-3.588-2.272 18.445 18.445 0 0 0-1.935-.748c-.658-.208-1.33-.365-2-.532A19.353 19.353 0 0 0 4.2.007 11.067 11.067 0 0 0 0 .851v.175a41.47 41.47 0 0 1 7.99 1.079 78.05 78.05 0 0 1 7.828 2.012z" class="cls-12" data-name="Path 247" transform="rotate(8 37201.986 -383.51)"/>
                <path id="Path_248-2" d="M.282 9.769a13.681 13.681 0 0 0 1.011-2.614c.238-.83.446-1.623.619-2.388.05-.4.175-.759.253-1.135l.127-.559a4.6 4.6 0 0 0 .147-.547 12 12 0 0 1 .93-2.385L3.294 0a4.985 4.985 0 0 0-1.95 1.876A8.611 8.611 0 0 0 .352 4.4a16.4 16.4 0 0 0-.23 5.382z" class="cls-12" data-name="Path 248" transform="rotate(8 37138.718 -155.622)"/>
                <path id="Path_249-2" d="M25.682 3.65a23.127 23.127 0 0 0-6.184-2.5c-1.056-.318-2.136-.48-3.21-.694-1.08-.171-2.17-.27-3.259-.389a34.221 34.221 0 0 0-6.594.2A19.342 19.342 0 0 0 0 2.2l.03.23a66.213 66.213 0 0 1 12.834-.052 124.694 124.694 0 0 1 12.773 1.5z" class="cls-12" data-name="Path 249" transform="rotate(8 36954.566 -357.844)"/>
                <path id="Path_251-2" d="M.9 7.888a10.039 10.039 0 0 0 .292-2.141c.039-.669.017-1.3.021-1.919a29.54 29.54 0 0 1-.04-1.792A7.658 7.658 0 0 1 1.41.091L1.331 0A3.749 3.749 0 0 0 .255 1.78 6.843 6.843 0 0 0 0 3.854a14.922 14.922 0 0 0 .784 4.071z" class="cls-12" data-name="Path 251" transform="rotate(8 37242.96 -223.261)"/>
                <path id="Path_250-2" d="M.384 15.5a24.336 24.336 0 0 0 2.16-6.711 29.88 29.88 0 0 1 2.244-6.574q.4-.825.862-1.621c.163-.283.322-.8-.1-.511a4.24 4.24 0 0 0-.632.669c-.36.4-.739.8-1.063 1.237A29.019 29.019 0 0 0 1.9 4.88 17.192 17.192 0 0 0 .173 15.523z" class="cls-12" data-name="Path 250" transform="rotate(8 37048.694 -84.394)"/>
            </g>
        </g>
        <g id="Group_297" data-name="Group 297" transform="rotate(7 -23554.462 10158.94)">
            <g id="Group_293" data-name="Group 293">
                <g id="Group_291" data-name="Group 291" transform="translate(158.224 280.859)">
                    <path id="Path_395" d="M20.357 5.344l3.77 15.86A22.914 22.914 0 0 1 22.9 35.709L0 6.167 13.527 0z" class="cls-13" data-name="Path 395"/>
                    <path id="Path_396" d="M11.194 1.365a22.908 22.908 0 0 1-.98 13.872 34.3 34.3 0 0 1-.744-.365c-.155-.08-.307-.161-.462-.242L0 3.009A20.774 20.774 0 0 1 10.86 0z" class="cls-14" data-name="Path 396" transform="translate(12.932 19.839)"/>
                    <path id="Path_397" d="M24.213 26.873a22.913 22.913 0 0 1-1.31 4.09L0 1.422 3.117 0z" class="cls-14" data-name="Path 397" transform="translate(0 4.746)"/>
                </g>
                <path id="Path_398" d="M0 7.953A249.8 249.8 0 0 1 86.754 1.18c5.58.546 11.584 1.488 15.538 5.463 4.7 4.719 5.012 12.145 4.708 18.8A204.008 204.008 0 0 1 84.4 109.7c-3.773-1.573-6.83-2.858-10.6-4.43 4.4-13.9 6.622-29.958 7.338-44.522.291-5.91.06-12.431-3.884-16.843-4.2-4.7-11.226-5.45-17.516-5.146-16.091.779-31.521 6.315-46.672 11.793-1.078-2.167-2.26-2.574-3.225-4.794A116.629 116.629 0 0 1 0 7.953z" class="cls-15" data-name="Path 398" transform="translate(94.868 176.961)"/>
                <path id="Path_399" d="M0 7.953A249.8 249.8 0 0 1 86.754 1.18c5.58.546 11.584 1.488 15.538 5.463 4.7 4.719 5.012 12.145 4.708 18.8A204.008 204.008 0 0 1 84.4 109.7c-3.773-1.573-6.83-2.858-10.6-4.43 4.4-13.9 6.622-29.958 7.338-44.522.291-5.91.06-12.431-3.884-16.843-4.2-4.7-11.226-5.45-17.516-5.146-16.091.779-31.521 6.315-46.672 11.793-1.078-2.167-2.26-2.574-3.225-4.794A116.629 116.629 0 0 1 0 7.953z" class="cls-16" data-name="Path 399" transform="translate(94.868 176.961)"/>
                <path id="Path_400" d="M82.3 16.754C76.445 6.078 63.392 1.464 51.249.612S26.83 1.746 14.767.1C5.581-1.152.842 9.544 0 19.747a143.666 143.666 0 0 0 3.574 9.034C4.537 31 5.721 31.407 6.8 33.574 21.949 28.1 37.38 22.56 53.471 21.781c6.29-.3 13.318.45 17.516 5.146 3.943 4.412 4.174 10.933 3.883 16.843-.716 14.563-2.936 30.623-7.338 44.522 1.77.739 3.381 1.411 4.985 2.084A190.086 190.086 0 0 0 85.05 42.767c1.122-8.799 1.511-18.235-2.75-26.013z" class="cls-17" data-name="Path 400" transform="translate(101.128 193.941)"/>
                <g id="Group_292" data-name="Group 292" transform="translate(63.598 375.66)">
                    <path id="Path_401" d="M26.742 7.021l4.952 20.834a30.1 30.1 0 0 1-1.606 19.053L0 8.1 17.77 0z" class="cls-13" data-name="Path 401"/>
                    <path id="Path_402" d="M14.706 1.792a30.079 30.079 0 0 1-1.287 18.223 38.54 38.54 0 0 1-.978-.48c-.2-.1-.4-.212-.6-.319L0 3.951A27.3 27.3 0 0 1 14.269 0z" class="cls-14" data-name="Path 402" transform="translate(16.988 26.063)"/>
                    <path id="Path_403" d="M31.807 35.3a30.117 30.117 0 0 1-1.719 5.372L0 1.866 4.095 0z" class="cls-18" data-name="Path 403" transform="translate(0 6.235)"/>
                </g>
                <path id="Path_404" d="M48.992 63.091c8.49 2.321 18.334-3.031 21-11.418 1.249-3.929 1.176-8.469 3.8-11.646 3.4-4.1 9.557-4.025 14.683-5.485 4.46-1.27 8.627-4.112 10.7-8.263s1.637-9.646-1.652-12.918c-5.672-5.643-15.581-2.356-22.888-5.616-4-1.787-6.979-5.457-11.086-6.983-7.494-2.783-15.578 2.5-20.832 8.524s-9.645 13.351-16.9 16.7C20.468 28.452 14.127 28.435 9.1 31.5a15.973 15.973 0 0 0-6.38 18.767C-.638 53.6-.754 59.91 1.642 63.99s6.461 6.855 10.452 9.4q8.526 5.428 17.415 10.259c3.349-3.768 5.895-8.686 8.582-12.952s6.039-8.934 10.901-7.606z" class="cls-19" data-name="Path 404" transform="translate(33.148)"/>
                <path id="Path_405" d="M.009 47.959a11.608 11.608 0 0 1 5.118-9.266C13.29 33.622 14.3 21.123 22.551 16.2c3.32-1.981 7.3-2.391 11.123-3s7.825-1.581 10.54-4.332C46.477 6.574 47.322 2.682 45.838 0c3.067.407 5.9 1.249 8.092 3.431 3.29 3.271 3.72 8.766 1.652 12.918s-6.236 6.993-10.7 8.263C39.76 26.071 33.6 25.991 30.2 30.1c-2.629 3.177-2.556 7.717-3.8 11.646-2.667 8.388-12.511 13.74-21 11.418a5.943 5.943 0 0 0-3.9.222 9.439 9.439 0 0 1-1.491-5.427z" class="cls-14" data-name="Path 405" transform="translate(76.742 9.931)"/>
                <path id="Path_406" d="M0 19.569L21.538 6.935l49.126 17.578a23.588 23.588 0 0 0 14.412.475L123.2 14.126c1.86-2.7 2.132-6.717 5.015-8.291 2.006-1.1 4.475-.511 6.679.1 2-1.735 4.11-3.408 6.182-5.1a3.6 3.6 0 0 1 5.462 1.036 14.6 14.6 0 0 1 1.685 5.885 14.078 14.078 0 0 1-3.036 9.419c-4.268 5.332-12.32 7.806-19.417 7.154L87.76 44.167a23.678 23.678 0 0 1-15.227 2.288A223.665 223.665 0 0 1 0 19.569z" class="cls-20" data-name="Path 406" transform="translate(62.449 76.355)"/>
                <path id="Path_407" d="M49.509 14.945a62.394 62.394 0 0 1-4.826 21.184A224.023 224.023 0 0 1 1.14 20.958C-.682 15.651-.421 9.626 2.658 4.992A18.364 18.364 0 0 1 7.739 0z" class="cls-21" data-name="Path 407" transform="translate(79.157 84.332)"/>
                <path id="Path_409" d="M.376 26.064C-.75 19.844.562 12.863 5.591 9.037a79.457 79.457 0 0 1 23.041 24.5c11.523 5.327 25.314 4.69 37.562 1.347s23.519-9.479 34.663-15.561c.57.613 1.418 1.73 1.988 2.341 6.282.309 12.634-3.363 16.453-8.359A19.889 19.889 0 0 0 123.225 0a3.415 3.415 0 0 1 1.975 1.657 14.6 14.6 0 0 1 1.685 5.885 14.078 14.078 0 0 1-3.036 9.419c-4.268 5.332-12.32 7.806-19.417 7.154L66.42 43.959a23.678 23.678 0 0 1-15.227 2.288A223.65 223.65 0 0 1 7.124 33.371l-.078-.032c-1.719-.7-3.426-1.43-5.128-2.172a24.806 24.806 0 0 1-1.542-5.103z" class="cls-22" data-name="Path 409" transform="translate(83.788 76.563)"/>
                <path id="Path_410" d="M77.162 78.512c-3.623-17.753-12.315-34-20.908-49.952C50.727 18.3 45.037 7.836 36.415 0 22.683 6.013 10.329 13.764 0 24.626q1.679 2.247 3.359 4.507a41.1 41.1 0 0 0 7.612 23.454C16.592 60.4 24.877 66.1 31.6 72.932A124.2 124.2 0 0 1 41.181 98.9c8.716 36.456-3.1 75.928-26 105.6 3.871 2.674 7.544 5.312 11.415 7.987 14.513-19.5 31.745-40.4 41.235-62.775s14.191-47.386 9.331-71.2z" class="cls-23" data-name="Path 410" transform="translate(64.214 171.877)"/>
                <path id="Path_411" d="M50.865 82.948c-.518-12.672-1.308-25.453-4.791-37.647s-9.894-23.892-19.91-31.669C20.425 9.176 16.4 3.252 9.764.292 9.533.189 9.3.1 9.06 0A95.059 95.059 0 0 0 0 8.326q1.679 2.247 3.359 4.507a41.1 41.1 0 0 0 7.612 23.454C16.592 44.1 24.877 49.8 31.6 56.632A124.2 124.2 0 0 1 41.181 82.6c8.716 36.456-3.1 75.928-26 105.6 1.974 1.363 3.9 2.718 5.82 4.072a121.253 121.253 0 0 0 26.382-51.348c4.455-18.903 4.276-38.571 3.482-57.976z" class="cls-16" data-name="Path 411" transform="translate(64.214 188.177)"/>
                <path id="Path_412" d="M61.993 100.3c-3.593-11.867-2.918-24.551-2.185-36.93s1.463-25.053-2.024-36.954S45.686 3.332 33.653.329c-8.227-2.052-18.887 5.878-23.6 12.933S3.647 28.906 2.376 37.29C.067 52.518-1.149 68.109 1.5 83.278s9.483 30 21.146 40.06c6.913 3.755 15.42.621 21.842-3.253 6.712-4.043 14.265-13.814 17.505-19.785z" class="cls-24" data-name="Path 412" transform="translate(47.302 81.52)"/>
                <path id="Path_413" d="M1.5 62.079C-1.149 46.91.067 31.318 2.376 16.091A100.579 100.579 0 0 1 4.821 3.975c3.213.339 6.287-1.507 8.44-3.875.032-.033.055-.07.086-.1l1.618 3.06 8.728 16.5L3.218 69.708A85.87 85.87 0 0 1 1.5 62.079z" class="cls-14" data-name="Path 413" transform="translate(47.302 102.719)"/>
                <path id="Path_414" d="M9.182 164.915C5.81 159.9 5.454 152.71 7.326 146.562l-6.9-49.018A43.371 43.371 0 0 1 6.2 69.113 278.381 278.381 0 0 1 65.15 0L71 30.521l-39.079 47.84a39.248 39.248 0 0 0-8.771 22.326l-2.92 45.756c1.981 1.729 4.354 3.17 4.849 5.673.445 2.243-.852 4.422-2.094 6.342 1.059 2.426 2.021 4.943 3.017 7.428a3.6 3.6 0 0 1-2.624 4.9 14.566 14.566 0 0 1-6.119-.154 14.073 14.073 0 0 1-8.077-5.717z" class="cls-25" data-name="Path 414" transform="translate(0 91.758)"/>
                <path id="Path_415" d="M45.91 30.521L16.933 66A37.946 37.946 0 0 1 0 41.672 277.776 277.776 0 0 1 40.065 0z" class="cls-26" data-name="Path 415" transform="translate(25.086 91.758)"/>
                <path id="Path_416" d="M0 37.579Q7.939 28.692 16.6 20.5a36.863 36.863 0 0 1 3.7-7.238C25.007 6.208 35.668-1.723 43.894.329a27.286 27.286 0 0 1 7 2.861L66.581 8.8c-.488 2.028-.888 4.087-1.4 6.1-1.066 4.2-2.826 8.5-6.35 11.023-6.989 5-17.081.781-25.126 3.8-4.128 1.546-7.318 4.857-11.111 7.1A24.518 24.518 0 0 1 0 37.579z" class="cls-27" data-name="Path 416" transform="translate(37.062 81.52)"/>
                <path id="Path_417" d="M18.783 1.634a56.028 56.028 0 0 0 6.076 18.959 12.778 12.778 0 0 1-7.795 4.618 15.257 15.257 0 0 1-10.116-1.5C4.5 18.072 2.449 11.471 0 5.83 4.2-.092 12.244-1.525 18.783 1.634z" class="cls-28" data-name="Path 417" transform="translate(59.051 66.101)"/>
                <path id="Path_418" d="M0 5.83c4.2-5.922 12.244-7.355 18.783-4.2a55.972 55.972 0 0 0 3.847 14.246 68.882 68.882 0 0 1-18.637.3C2.693 12.655 1.413 9.085 0 5.83z" class="cls-14" data-name="Path 418" transform="translate(59.051 66.101)"/>
                <path id="Path_419" d="M25.93.106a47.236 47.236 0 0 1 16.806 40.137c-8.909 2.2-19.68 2.776-28.119-.827S-.58 27.276.039 18.12A20.014 20.014 0 0 1 8.228 3.676C12.828.29 20.23-.283 25.93.106z" class="cls-20" data-name="Path 419" transform="translate(46.597 36.767)"/>
                <path id="Path_420" d="M17.2.369A22.365 22.365 0 0 1 18.748 0a46.8 46.8 0 0 1 11.1 15.754A36.428 36.428 0 0 1 0 12.863 29.043 29.043 0 0 1 17.2.369z" class="cls-22" data-name="Path 420" transform="translate(55.72 38.569)"/>
                <path id="Path_421" d="M47.227 11.081c-2.237 5.314-7.3 9.068-12.785 10.852s-11.38 1.812-17.129 1.377a8.342 8.342 0 0 1-2.106 7.7c1.624 1.91 3.5 3.685 5.121 5.595-.445.364-.747.609-1.192.971a11.036 11.036 0 0 0-3.936-3.597c-1.162-.7-2.735-1.141-3.823-.326a2.779 2.779 0 0 0-.457 3.52 6.693 6.693 0 0 0 2.961 2.421 25.411 25.411 0 0 0 7.81 2.446 10.642 10.642 0 0 0-1.026 5.035c.008 2.054-1.978 2.956-3.836 3.828-6.169-5.061-12.5-10.616-15.349-18.067A24.275 24.275 0 0 1 4.833 10 25.846 25.846 0 0 1 25.768 0C33.8.192 42.286 4.751 47.227 11.081z" class="cls-19" data-name="Path 421" transform="translate(40.809 29.647)"/>
                <path id="Path_422" d="M3.629 2.855a29.621 29.621 0 0 1 3.307 1.958 1.924 1.924 0 0 1 .885 1.935 1.459 1.459 0 0 1-1.287.888 3.5 3.5 0 0 1-1.6-.356A9.166 9.166 0 0 1 1.56 4.93 6.1 6.1 0 0 1 0 1.173C-.031.158.728-.453 1.389.414a8 8 0 0 0 2.24 2.441z" class="cls-29" data-name="Path 422" transform="translate(79.37 57.003)"/>
                <path id="Path_423" d="M1.183 3.471C.54 3.9-.154 4.556.03 5.306s1.083 1.006 1.839 1.083a14.563 14.563 0 0 0 10.257-3.014c.862-.669 2.969-2.84.75-3.273-1.737-.339-4.046.239-5.72.684a20.109 20.109 0 0 0-5.973 2.685z" class="cls-29" data-name="Path 423" transform="translate(61.525 60.523)"/>
                <path id="Path_424" d="M.15 1a1.68 1.68 0 0 1 .855-.6A6.693 6.693 0 0 1 2.573 0a49.515 49.515 0 0 1 1.441 4.195c-.314-.042-.628-.08-.936-.151A5.285 5.285 0 0 1 .686 2.858a2.216 2.216 0 0 1-.606-.847A1.188 1.188 0 0 1 .15 1z" class="cls-29" data-name="Path 424" transform="translate(83.652 55.922)"/>
                <path id="Path_425" d="M.888 2.906C1.765 3.982 2.916 4.5 3.455 4.057s.269-1.671-.609-2.747S.819-.284.277.158.01 1.829.888 2.906z" class="cls-30" data-name="Path 425" transform="translate(68.4 54.835)"/>
                <path id="Path_426" d="M.694 2.272c.688.842 1.586 1.245 2.009.9s.209-1.307-.478-2.149S.639-.222.217.124.008 1.431.694 2.272z" class="cls-30" data-name="Path 426" transform="translate(80.205 51.292)"/>
                <path id="Path_427" d="M10.45 131.37c-.546-2.343-1.619-4.54-2.119-6.893-.667-3.13-.305-6.443-1.255-9.5S3.042 109.072 0 110.063a145.975 145.975 0 0 0 1.134-61.508Q26.745 24.16 52.579 0L18.615 41.581a39.249 39.249 0 0 0-8.771 22.326l-2.919 45.756c1.981 1.729 4.354 3.17 4.849 5.673.445 2.243-.852 4.422-2.094 6.342 1.059 2.422 2.02 4.942 3.02 7.422a3.614 3.614 0 0 1-1.946 4.694 11.52 11.52 0 0 0-.304-2.424z" class="cls-22" data-name="Path 427" transform="translate(13.306 128.538)"/>
            </g>
        </g>
        <g id="Group_301" data-name="Group 301" transform="translate(1304.73 2838.352)">
            <g id="Group_299" data-name="Group 299" transform="translate(145.339 374.288)">
                <path id="Path_466" d="M721.478 393.465l-8.088 16.288a27.526 27.526 0 0 0-1.279 17.439l32.733-30.739-14.889-9.862z" class="cls-19" data-name="Path 466" transform="translate(-711.255 -386.591)"/>
                <path id="Path_467" d="M713.384 401.678a27.511 27.511 0 0 0-1.448 16.642c.319-.094.637-.19.952-.292.2-.065.394-.134.592-.2l12.877-12.093a24.972 24.972 0 0 0-12.321-5.613z" class="cls-31" data-name="Path 467" transform="translate(-711.25 -378.516)"/>
                <path id="Path_468" d="M711.3 419.257a27.458 27.458 0 0 0 .782 5.1l32.733-30.739-3.432-2.274z" class="cls-31" data-name="Path 468" transform="translate(-711.228 -383.755)"/>
            </g>
            <path id="Path_469" d="M707.984 270.716c-23.454 26.664-27.975 66.029-19.806 100.584s27.37 65.377 47.181 94.847c4-3.464 8.621-6.418 12.62-9.881-19.566-22.194-29.96-54.208-30.586-83.789a127.787 127.787 0 0 1 28.139-82.275c-12.187-7.318-24.243-14.474-37.548-19.486z" class="cls-32" data-name="Path 469" transform="translate(-581.932 -81.46)"/>
            <path id="Path_470" d="M708.205 286.908a149.137 149.137 0 0 0 27.41 164.543c2.114-1.573 4.224-3.147 6.184-4.846-19.566-22.194-29.96-54.208-30.586-83.789a127.936 127.936 0 0 1 17.977-67.637 67.012 67.012 0 0 0-20.985-8.271z" class="cls-22" data-name="Path 470" transform="translate(-575.752 -71.796)"/>
            <path id="Path_472" d="M720.7 268.183l-2.9-22.649-40.185-25.724a21.572 21.572 0 0 1-8.4-10.162l-13.453-33.66c.913-2.855 3.668-5.3 3.2-8.265-.329-2.065-2.132-3.524-3.805-4.778.141-2.416.169-4.88.236-7.328a3.29 3.29 0 0 0-3.8-3.373 13.312 13.312 0 0 0-5.2 2.071 12.868 12.868 0 0 0-5.118 7.462c-1.472 6.07 1.238 13.281 5.68 18.052l6.89 38.6a21.653 21.653 0 0 0 6.858 12.3 204.532 204.532 0 0 0 59.997 37.454z" class="cls-20" data-name="Path 472" transform="translate(-607.93 -152.196)"/>
            <path id="Path_473" d="M670.876 196a57.077 57.077 0 0 0-12.631 15.338 204.924 204.924 0 0 0 35.323 23.026c4.861-1.648 9.073-5.206 10.707-10.025a16.825 16.825 0 0 0 .771-6.469z" class="cls-33" data-name="Path 473" transform="translate(-597.554 -126.054)"/>
            <path id="Path_475" d="M703.708 256.217c5.132-2.663 9.45-7.516 9.407-13.3a72.659 72.659 0 0 0-30.613-2.972c-10.3-5.361-17.548-15.7-21.975-26.429s-6.293-22.319-8.121-33.784c-.762-.07-2.044-.059-2.806-.129-3.737-4.374-4.631-11.023-3.149-16.581a18.17 18.17 0 0 1 7.433-10.28 3.131 3.131 0 0 0-2.3-.5 13.312 13.312 0 0 0-5.2 2.071 12.868 12.868 0 0 0-5.118 7.462c-1.472 6.07 1.238 13.281 5.68 18.052l6.89 38.6a21.662 21.662 0 0 0 6.858 12.3 204.757 204.757 0 0 0 33.957 24.69l.067.038c1.469.853 2.951 1.68 4.439 2.5a22.726 22.726 0 0 0 4.551-1.738z" class="cls-22" data-name="Path 475" transform="translate(-607.93 -152.196)"/>
            <path id="Path_476" d="M689.471 230.3c-6.052.814-12.511 1.044-17.942-1.747s-9.257-9.507-6.943-15.159c.846-2.068 2.44-3.915 2.537-6.148.112-2.491-1.664-4.629-2.43-7-1.672-5.177 2.595-11.355 8.027-11.625-2.264-4.853 5.076-11.179 10.383-11.9s10.878.8 15.975-.84c4.441-1.428 8.146-5.158 12.8-5.375 5.017-.235 9.257 3.73 11.976 7.952s4.669 9.062 8.363 12.466c11.486 10.589 32.261 1.71 44.411 11.529 7.542 6.1 9.175 17.6 17.035 23.285 7.709 5.571 19.274 3.912 26.292 10.333 4.2 3.84 5.752 9.7 7.114 15.227 1.118 4.537 2.243 9.163 1.934 13.827s-2.291 9.455-6.2 12.019c-5.228 3.43-12.187 2.063-18.205 3.751-9.563 2.683-15.109 12.34-19.925 21.027s-11.131 18.121-20.944 19.654c-7.981 1.247-16-3.51-20.65-10.114s-6.494-14.758-7.61-22.758-1.622-16.147-4.022-23.86c-5.706-18.349-22.932-37.107-41.976-34.544z" class="cls-34" data-name="Path 476" transform="translate(-594.18 -141.277)"/>
            <g id="Group_300" data-name="Group 300" transform="translate(0 315.694)">
                <path id="Path_477" d="M637.212 349.9l-11.8 16.208a24.626 24.626 0 0 0-5.174 14.771L655.7 361.95l-10.565-12z" class="cls-19" data-name="Path 477" transform="translate(-620.238 -349.897)"/>
                <path id="Path_478" d="M625.4 360.493a24.625 24.625 0 0 0-5.135 14.044c.3-.008.6-.016.891-.032.187-.01.372-.024.559-.035l13.948-7.446a22.344 22.344 0 0 0-9.337-7.724z" class="cls-31" data-name="Path 478" transform="translate(-620.224 -344.285)"/>
                <path id="Path_479" d="M620.751 372.816a24.477 24.477 0 0 0-.513 4.588l35.462-18.926-2.435-2.764z" class="cls-31" data-name="Path 479" transform="translate(-620.238 -346.425)"/>
            </g>
            <path id="Path_480" d="M720.433 299.005c-3.994-10.616-11.7-19.491-19.115-28.073s-14.991-17.375-19.077-27.954-4.051-23.486 3.016-32.357c4.83-6.065 16.981-6.234 24.321-3.73s13.353 7.794 18.938 13.174c10.143 9.771 19.692 20.415 26.2 32.9s9.8 27.055 6.922 40.842c-2.932 6.569-10.85 9.025-17.666 9.784-7.116.797-20.352-1.835-23.539-4.586z" class="cls-35" data-name="Path 480" transform="translate(-584.876 -120.459)"/>
            <path id="Path_481" d="M679.6 204.127a51.236 51.236 0 0 1 6.13 17.144 10.71 10.71 0 0 0 8.066-.814 12.594 12.594 0 0 0 6.673-6.879c-1.357-5.458-3.54-11.389-4.9-16.847-6.337-1.963-12.969 1.469-15.969 7.396z" class="cls-36" data-name="Path 481" transform="translate(-584.806 -125.948)"/>
            <path id="Path_482" d="M695.575 196.73c-6.343-1.962-12.977 1.468-15.97 7.4a51.238 51.238 0 0 1 5.126 12.481 62.993 62.993 0 0 0 13.7-10.143c-1.017-3.285-2.072-6.589-2.856-9.738z" class="cls-14" data-name="Path 482" transform="translate(-584.806 -125.948)"/>
            <path id="Path_483" d="M671.675 187.987a43.2 43.2 0 0 0 10.114 38.485c7.692-3.357 15.833-8.926 19.956-16.235s4.283-17.265-1.257-23.569a18.3 18.3 0 0 0-13.975-5.932c-5.224.099-10.913 3.801-14.838 7.251z" class="cls-20" data-name="Path 483" transform="translate(-590.182 -135.165)"/>
            <path id="Path_484" d="M675.307 200.474a33.79 33.79 0 0 0-1.582 3.575 1.755 1.755 0 0 0 .434 1.9 1.331 1.331 0 0 0 1.428-.07 3.192 3.192 0 0 0 .964-1.148 8.39 8.39 0 0 0 1.145-3.583 5.569 5.569 0 0 0-.96-3.593c-.541-.755-1.432-.776-1.429.222.002 1.1.422 1.6 0 2.697z" class="cls-19" data-name="Path 484" transform="translate(-588.368 -125.455)"/>
            <path id="Path_485" d="M689.193 194.192c.706-.046 1.574.045 1.857.691s-.225 1.333-.733 1.809a13.317 13.317 0 0 1-9.123 3.515c-1-.008-3.733-.41-2.363-1.959a13.008 13.008 0 0 1 4.534-2.684 18.389 18.389 0 0 1 5.828-1.372z" class="cls-37" data-name="Path 485" transform="translate(-585.492 -127.138)"/>
            <path id="Path_486" d="M673.99 198.341a1.525 1.525 0 0 0-.957.037 6.1 6.1 0 0 0-1.356.584c.374 1.3.792 2.588 1.284 3.848.2-.206.412-.407.6-.631a4.834 4.834 0 0 0 1.078-2.191 2.018 2.018 0 0 0-.032-.952 1.077 1.077 0 0 0-.617-.695z" class="cls-37" data-name="Path 486" transform="translate(-589.537 -124.694)"/>
            <path id="Path_487" d="M680.875 194.509c-.038 1.269-.588 2.283-1.225 2.264s-1.123-1.065-1.084-2.335.586-2.283 1.223-2.264 1.124 1.064 1.086 2.335z" class="cls-30" data-name="Path 487" transform="translate(-585.428 -128.336)"/>
            <path id="Path_488" d="M673.953 196.462c-.03.993-.458 1.785-.957 1.771s-.88-.832-.849-1.825.458-1.787.958-1.771.878.832.848 1.825z" class="cls-30" data-name="Path 488" transform="translate(-589.258 -126.866)"/>
            <path id="Path_489" d="M668.527 207.425A23.913 23.913 0 0 0 678.948 196c1.234 2.557 5.245 3.594 8.074 3.832s5.972.353 7.987 2.352c2.6 2.577 1.988 6.817 2.573 10.432 1.316 8.16 10.054 13.9 18.288 13.175s15.368-6.871 18.732-14.423c-6.523-6.3-13.187-12.417-16.725-20.768-1.383-3.264-2.59-6.759-5.15-9.211-2.414-2.312-5.755-3.4-9.052-3.951a35.9 35.9 0 0 0-29.142 8.318 23.5 23.5 0 0 0-7.023 9.9 13.947 13.947 0 0 0 1.017 11.769z" class="cls-38" data-name="Path 489" transform="translate(-592.521 -137.401)"/>
            <path id="Path_490" d="M770.619 266.171c-25.736.07-52.536.38-75.544 11.909-21.916 10.981-38.121 31.314-48.1 53.7S632.7 378.659 629.822 403c3.963.624 8.187.42 12.15 1.044 4.495-15.585 10.552-33.47 18.408-47.66s19.414-26.907 34.41-33.088c11.585-4.774 24.427-5.388 36.955-5.269s25.169.891 37.5-1.333 24.613-7.885 31.855-18.11 8-25.541-.524-34.728c-10.062-1.997-19.699 2.288-29.957 2.315z" class="cls-39" data-name="Path 490" transform="translate(-614.518 -85.87)"/>
            <path id="Path_491" d="M759.29 290.039c-11.576 2.854-23.715 2.306-35.477 4.246-25.958 4.283-48.973 20.839-64.231 42.27-13.988 19.646-21.865 43.1-25.468 66.993a51.923 51.923 0 0 1 5.3.476c4.5-15.585 10.552-33.47 18.408-47.66s19.414-26.907 34.41-33.088c11.585-4.774 24.427-5.388 36.955-5.269s25.169.891 37.5-1.333 24.613-7.887 31.855-18.11 8-25.541-.524-34.728a27.549 27.549 0 0 0-3.66-.468 48.454 48.454 0 0 0-8.955 4.848c-2.951 11.55-14.539 18.971-26.113 21.823z" class="cls-22" data-name="Path 491" transform="translate(-611.956 -85.846)"/>
            <path id="Path_492" d="M707.962 297.9c7.349 6.525 17.084 10.932 26.9 11.337a39.98 39.98 0 0 0 26.46-8.191c-2.975-38.905-26.522-76.027-61.218-93.878.5 9.18 4.8 19.114 9.484 27.028s9.078 16.832 7.622 25.912c-1.017 6.328-4.77 11.856-6.772 17.947a33.673 33.673 0 0 0-.326 19.833c-.668-.232-1.48.234-2.15.012z" class="cls-40" data-name="Path 492" transform="translate(-572.57 -119.39)"/>
            <path id="Path_493" d="M694.674 232.553l43.8 18.838a37.351 37.351 0 0 1 17.217 15l5.368 8.886a119.107 119.107 0 0 0-49.848-64.909c-.929-.35-1.854-.712-2.786-1.052-.715 8.253-6.554 17.811-13.751 23.237z" class="cls-22" data-name="Path 493" transform="translate(-575.812 -118.104)"/>
            <path id="Path_494" d="M694.371 234.241L740.8 245.1a37.357 37.357 0 0 1 19.584 11.746l28.781 32.818c-.49 2.454-1.442 4.92-.364 7.095.968 1.95 3.213 2.841 5.265 3.567.61 2.446 1.346 4.9 2.038 7.357a3.424 3.424 0 0 0 4.826 2.172 13.866 13.866 0 0 0 4.527-3.673 13.39 13.39 0 0 0 2.77-9c-.37-5.747-4.278-11.373-9.258-14.921L775.7 241.274a41.3 41.3 0 0 0-20.87-18.092 265.239 265.239 0 0 0-51-14.228c.743 8.246-3.33 18.683-9.459 25.287z" class="cls-20" data-name="Path 494" transform="translate(-575.993 -118.321)"/>
            <path id="Path_495" d="M692.25 233.82l35.017 8.189a36.132 36.132 0 0 0-1.359-28.186 267.221 267.221 0 0 0-26.935-5.49c2.543 8.505-2.645 18.038-6.723 25.487z" class="cls-41" data-name="Path 495" transform="translate(-577.259 -118.692)"/>
            <path id="Path_496" d="M781.177 276.732c-4.388-10.866-9.2-21.706-16.989-30.407-14.643-16.369-38.536-22.723-60.172-18.871l31.023 7.253a37.357 37.357 0 0 1 19.583 11.746z" class="cls-22" data-name="Path 496" transform="translate(-570.236 -107.932)"/>
        </g>
    </g>
</svg>
