<svg xmlns="http://www.w3.org/2000/svg"  height="20" viewBox="0 0 111.473 111.691">
    <defs>
        <style>
            .cls-1{fill:#a3b4ef;opacity:.15}.cls-2{fill:none;stroke:#0ee5c7;stroke-linecap:round;stroke-linejoin:round;stroke-width:1.5px}.cls-3{fill:#2354f3;stroke:#2354f3}
        </style>
    </defs>
    <g id="Group_442" data-name="Group 442" transform="translate(-763.885 -1430)">
        <g id="Group_441" data-name="Group 441">
            <path id="Path_273" d="M33.865 0C15.089 0-8.759 53.092 3.237 69.633S68.424 83 77.376 61.219 52.641 0 33.865 0z" class="cls-1" data-name="Path 273" transform="rotate(-142 678.437 628.633)"/>
            <path id="Path_277" d="M-957.449-4891.857l7.394-14.259 2.261-4.165 7.37 5.8 5.434-9.513 4.639 3.711 7.436-14.807" class="cls-2" data-name="Path 277" transform="rotate(13 -28109.263 6123.806)"/>
        </g>
        <g id="analysis" transform="translate(824.46 1464.309)">
            <g id="Group_206" data-name="Group 206" transform="translate(0 .08)">
                <g id="Group_205" data-name="Group 205">
                    <path id="Path_276" d="M36.794 8.106a20.517 20.517 0 1 0-5.123 29.714l2.477 2.48 1.16 1.16 6.607 6.607A4.3 4.3 0 0 0 48 41.979l-6.607-6.607-1.16-1.16-2.477-2.477a20.449 20.449 0 0 0 0-22.27zm10.045 35.033a2.661 2.661 0 1 1-3.721 3.806l-.043-.043-6.606-6.602 3.764-3.764zm-7.767-7.767l-3.764 3.764-2.272-2.272c.116-.089.224-.186.338-.277s.246-.2.368-.3c.18-.151.357-.3.531-.46l.263-.246q.5-.473.977-.977c.082-.088.164-.173.246-.263.157-.174.309-.351.46-.531q.154-.182.3-.368c.09-.113.188-.222.277-.337zM35.89 31.56a18.96 18.96 0 0 1-.807 1.055c-.082.1-.17.2-.254.293q-.377.438-.778.85-.175.181-.355.355-.41.4-.85.778c-.1.082-.194.172-.293.254-.341.281-.694.548-1.055.807a18.905 18.905 0 1 1 4.392-4.392z" class="cls-3" data-name="Path 276" transform="translate(0 -.08)"/>
                </g>
            </g>
        </g>
    </g>
</svg>
